<?xml version="1.0" encoding="utf-8"?>
<svg version="1.1" xmlns="http://www.w3.org/2000/svg" xmlns:xlink="http://www.w3.org/1999/xlink" x="0px" y="0px"
	 width="50px" height="50px" viewBox="0 0 50 50" enable-background="new 0 0 50 50" xml:space="preserve">
<path fill="#ef4744" d="M50,45c0,2.761-2.239,5-5,5H5c-2.761,0-5-2.239-5-5V5c0-2.761,2.239-5,5-5h40c2.761,0,5,2.239,5,5V45z"/>
<g>
	<path fill="#FFFFFF" d="M21.325,35.576l-3.644,3.313c1.366-0.277,2.484-0.414,3.354-0.414c1.201,0,2.892,0.29,5.072,0.869
		s3.899,0.869,5.155,0.869c1.38,0,2.656-0.248,3.83-0.745c0.731-0.304,1.482-0.822,2.256-1.553l0.622,0.58
		c-1.396,1.697-3.037,2.998-4.928,3.902c-1.891,0.904-4.271,1.356-7.143,1.356c-1.615,0-3.498-0.231-5.651-0.693
		c-2.153-0.463-3.865-0.694-5.135-0.694c-1.008,0-2.084,0.152-3.229,0.456l-0.394-0.518l7.64-6.728
		c-1.795-0.304-3.168-0.787-4.12-1.449c-1.297-0.883-2.305-2.094-3.022-3.633c-0.718-1.539-1.076-3.123-1.076-4.751
		c0-3.064,0.88-6.151,2.64-9.265c1.76-3.112,4.119-5.6,7.08-7.463c2.96-1.863,5.896-2.795,8.809-2.795
		c1.685,0,3.292,0.421,4.824,1.263c1.531,0.842,2.719,2.032,3.561,3.571s1.263,3.137,1.263,4.792c0,2.471-0.601,5.007-1.801,7.608
		c-1.201,2.602-2.826,4.869-4.876,6.801c-2.049,1.932-4.116,3.333-6.2,4.202C24.804,35.05,23.175,35.423,21.325,35.576z
		 M28.758,7.896c-1.091,0-2.019,0.197-2.784,0.59c-0.767,0.393-1.563,1.053-2.392,1.978c-0.828,0.925-1.67,2.246-2.525,3.965
		c-0.856,1.718-1.66,4.054-2.412,7.008c-0.753,2.953-1.129,5.417-1.129,7.39c0,1.685,0.366,2.958,1.098,3.82
		c0.731,0.863,1.67,1.294,2.815,1.294c1.519,0,2.809-0.504,3.872-1.512c2.111-2.001,3.832-4.938,5.165-8.809
		c1.332-3.872,1.997-7.318,1.997-10.341c0-1.89-0.354-3.26-1.065-4.109C30.686,8.32,29.806,7.896,28.758,7.896z"/>
</g>
</svg>
